<?xml version="1.0" standalone="no"?>
<!DOCTYPE svg PUBLIC "-//W3C//DTD SVG 20010904//EN"
 "http://www.w3.org/TR/2001/REC-SVG-20010904/DTD/svg10.dtd">
<svg version="1.0" xmlns="http://www.w3.org/2000/svg"
 width="1144.000000pt" height="1144.000000pt" viewBox="0 0 1144.000000 1144.000000"
 preserveAspectRatio="xMidYMid meet">
<metadata>
Created by potrace 1.14, written by Peter Selinger 2001-2017
</metadata>
<g transform="translate(0.000000,1144.000000) scale(0.100000,-0.100000)"
fill="#000000" stroke="none">
<path d="M3231 10418 c-33 -51 -64 -98 -69 -103 -5 -6 -21 -32 -36 -58 -15
-26 -33 -47 -39 -47 -6 0 -7 -3 -4 -6 3 -4 -16 -39 -43 -79 -28 -39 -50 -77
-50 -83 0 -7 -4 -12 -8 -12 -5 0 -17 -16 -28 -35 -10 -19 -22 -35 -26 -35 -5
0 -8 -5 -8 -10 0 -12 -41 -73 -53 -78 -4 -2 -5 -8 -1 -13 3 -5 1 -9 -5 -9 -6
0 -17 -15 -26 -34 -9 -18 -24 -42 -34 -52 -9 -11 -19 -23 -21 -29 -3 -8 -113
-181 -150 -235 -55 -80 -180 -272 -180 -276 0 -3 -5 -10 -11 -17 -6 -7 -62
-91 -124 -187 -63 -96 -119 -182 -125 -190 -6 -8 -62 -94 -125 -190 -63 -96
-119 -182 -125 -190 -5 -8 -52 -80 -104 -159 -52 -79 -99 -151 -105 -160 -7
-9 -17 -26 -24 -37 -19 -33 -114 -177 -126 -191 -6 -7 -16 -24 -23 -38 -6 -14
-15 -25 -20 -25 -4 0 -8 -5 -8 -10 0 -6 -31 -57 -68 -113 -38 -56 -71 -110
-75 -119 -3 -10 -11 -18 -17 -18 -5 0 -10 -4 -10 -9 0 -4 -34 -59 -75 -120
-41 -62 -75 -115 -75 -118 0 -3 -14 -23 -31 -44 -17 -21 -27 -39 -22 -39 4 0
3 -4 -2 -8 -14 -9 -115 -162 -115 -172 0 -5 -4 -10 -8 -12 -4 -1 -19 -21 -32
-43 -13 -22 -28 -44 -33 -50 -22 -28 -187 -286 -187 -294 0 -5 -4 -11 -8 -13
-12 -5 -172 -250 -172 -264 0 -3 17 -3 38 0 20 4 64 9 97 11 33 3 74 7 90 9
17 2 61 7 98 11 37 3 77 8 88 10 11 2 52 7 92 11 39 3 83 8 97 10 52 7 107 13
170 18 36 3 76 8 90 10 14 3 52 7 85 10 33 3 78 8 100 11 22 3 65 7 95 10 30
4 71 8 90 10 19 3 58 7 85 9 28 3 50 6 50 6 0 1 23 3 50 5 28 3 68 7 90 10 22
2 65 7 95 10 30 3 71 8 90 10 19 2 68 7 109 11 l74 7 -20 -29 c-38 -55 -57
-89 -55 -96 1 -5 -3 -8 -8 -8 -6 0 -10 -7 -10 -15 0 -8 -3 -15 -8 -15 -4 0
-13 -15 -21 -32 -8 -18 -18 -35 -21 -38 -4 -3 -17 -23 -29 -45 -12 -22 -35
-62 -52 -90 -16 -27 -37 -65 -46 -82 -9 -18 -20 -33 -25 -33 -4 0 -8 -4 -8 -9
0 -12 -71 -134 -83 -142 -5 -3 -8 -9 -8 -13 1 -3 -57 -105 -129 -226 -72 -121
-130 -223 -129 -226 0 -4 -3 -10 -8 -13 -12 -8 -113 -180 -113 -192 0 -5 -4
-9 -9 -9 -5 0 -13 -10 -17 -22 -3 -13 -12 -30 -19 -38 -7 -8 -24 -35 -37 -60
-26 -45 -204 -346 -254 -430 -16 -25 -27 -48 -26 -52 1 -5 -3 -8 -8 -8 -6 0
-10 -7 -10 -15 0 -8 -4 -15 -10 -15 -5 0 -10 -5 -10 -10 0 -6 -11 -27 -23 -48
-13 -20 -63 -104 -112 -187 -48 -82 -96 -162 -106 -177 -11 -15 -19 -30 -19
-33 0 -3 -15 -29 -33 -58 -18 -29 -36 -59 -41 -67 -7 -16 -7 -16 -84 -142 -28
-48 -52 -90 -52 -93 0 -3 -5 -11 -11 -18 -16 -19 -139 -229 -139 -239 0 -4 -4
-8 -9 -8 -5 0 -11 -9 -14 -20 -3 -11 -6 -24 -7 -28 -1 -4 13 -5 31 -3 19 2 48
5 64 6 17 2 30 4 30 5 0 1 16 3 35 5 39 3 151 15 190 20 14 1 50 6 80 10 30 4
71 9 90 11 19 2 53 5 75 8 22 3 67 8 100 12 33 3 69 8 80 10 11 2 49 7 84 10
l63 5 -23 -38 c-13 -21 -28 -41 -33 -45 -6 -4 -8 -8 -4 -8 4 0 -14 -35 -39
-78 -25 -42 -57 -97 -71 -122 -13 -25 -30 -52 -36 -60 -6 -8 -22 -35 -35 -60
-13 -25 -29 -52 -35 -60 -6 -8 -17 -26 -25 -40 -53 -91 -109 -188 -129 -219
-12 -20 -25 -43 -29 -51 -3 -8 -13 -23 -21 -32 -8 -10 -11 -18 -7 -18 4 0 1
-8 -7 -17 -20 -24 -118 -193 -118 -204 0 -5 -4 -9 -10 -9 -5 0 -10 -5 -10 -10
0 -6 -11 -29 -26 -51 -14 -22 -34 -55 -44 -74 -10 -18 -74 -127 -141 -242
-206 -350 -221 -377 -238 -408 -9 -16 -19 -32 -22 -35 -4 -3 -16 -23 -28 -45
-56 -103 -67 -120 -73 -123 -5 -2 -8 -10 -8 -17 0 -8 -6 -20 -13 -27 -7 -7
-26 -35 -41 -63 -16 -27 -40 -70 -54 -95 -13 -25 -33 -57 -43 -72 -11 -14 -19
-29 -19 -33 0 -4 -25 -47 -56 -97 -30 -49 -59 -100 -64 -114 -5 -13 -15 -24
-21 -24 -7 0 -9 -3 -6 -7 4 -3 1 -13 -6 -22 -35 -41 -23 -50 13 -11 23 25 117
124 210 220 184 191 271 282 508 528 86 90 200 208 252 262 52 54 170 176 262
272 91 95 214 222 272 283 58 60 106 113 106 118 0 4 5 5 10 2 6 -3 10 -2 10
3 0 5 37 47 83 94 45 47 163 170 262 273 99 103 216 224 260 270 137 142 457
474 520 540 315 328 395 412 430 445 l40 39 -65 -5 c-36 -2 -78 -7 -95 -9 -16
-3 -52 -7 -80 -9 -27 -3 -93 -10 -145 -16 -52 -6 -115 -13 -140 -16 -25 -2
-61 -6 -80 -9 -19 -2 -57 -7 -85 -10 -27 -2 -70 -7 -95 -10 -25 -3 -69 -8 -99
-11 -30 -3 -60 -8 -65 -11 -14 -7 80 83 133 127 23 19 58 50 79 69 20 18 57
49 81 70 24 20 53 44 65 55 11 10 43 37 70 60 64 54 126 107 146 126 9 8 43
38 75 65 61 51 109 92 129 110 6 6 56 48 111 95 142 121 154 132 186 163 16
16 29 26 29 23 0 -3 16 9 35 27 19 17 48 43 65 57 16 14 44 39 62 55 18 17 55
48 82 70 26 22 58 49 70 60 38 35 113 99 157 135 23 19 54 46 69 60 14 14 38
35 52 46 15 12 52 43 84 70 31 27 66 57 78 67 59 51 132 114 152 132 12 11 41
36 64 55 23 19 55 46 70 60 16 14 48 42 72 62 23 20 57 49 73 63 17 14 47 40
68 58 21 18 51 43 66 57 14 14 48 43 75 65 27 22 58 48 70 58 11 11 45 40 75
65 30 26 62 54 71 62 9 8 54 47 100 87 47 40 99 84 115 98 17 15 52 45 80 68
27 23 63 54 80 69 l30 28 -55 -5 c-48 -4 -89 -9 -190 -20 -14 -1 -52 -5 -85
-9 -86 -9 -145 -16 -185 -22 -19 -3 -64 -7 -100 -10 -36 -2 -78 -7 -95 -10
-16 -3 -55 -8 -85 -10 -74 -6 -135 -12 -135 -14 0 -1 -18 -3 -40 -5 -40 -4
-99 -11 -185 -20 -25 -2 -65 -7 -90 -9 -72 -7 -164 -18 -182 -21 -9 -2 -50 -6
-92 -10 -41 -3 -84 -8 -95 -10 -11 -2 -48 -6 -83 -10 -35 -3 -81 -8 -103 -10
-130 -14 -159 -16 -155 -12 3 3 57 60 120 127 63 67 154 162 203 212 48 49 87
92 87 93 0 2 41 45 90 96 50 50 90 93 90 94 0 1 37 40 83 88 45 47 141 147
212 223 72 76 148 156 170 179 22 23 96 102 165 174 69 73 148 156 175 185 28
29 115 121 195 206 80 84 180 189 223 233 42 44 77 81 77 83 0 1 33 36 73 77
39 41 128 134 197 207 69 73 148 156 175 185 82 85 231 243 375 395 74 78 158
166 185 194 28 29 113 119 190 200 77 82 173 183 213 224 39 42 72 76 72 77 0
1 38 42 85 91 47 49 100 104 117 122 l31 32 -1901 0 -1901 0 -60 -92z"/>
<path d="M7377 10378 c-69 -73 -156 -165 -194 -204 -37 -40 -122 -129 -188
-199 -66 -70 -149 -158 -185 -195 -36 -37 -117 -122 -180 -190 -63 -67 -155
-164 -205 -216 -49 -51 -131 -138 -182 -191 -50 -54 -122 -130 -160 -169 -37
-39 -123 -129 -190 -200 -67 -71 -162 -172 -212 -224 -50 -52 -91 -97 -91
-100 0 -3 1124 -5 2498 -5 1373 0 2515 -3 2537 -6 22 -4 56 -10 75 -14 19 -3
52 -8 73 -12 21 -3 40 -10 43 -14 3 -5 12 -9 20 -9 47 0 225 -107 318 -191 43
-39 126 -140 150 -184 9 -16 25 -45 36 -63 11 -18 20 -34 20 -37 0 -3 7 -22
15 -42 23 -54 47 -140 55 -198 4 -27 8 590 9 1373 l1 1422 -1969 0 -1969 0
-125 -132z"/>
<path d="M5895 6901 c-10 -2 -24 -8 -30 -15 -7 -6 -34 -30 -61 -52 -51 -43
-65 -56 -148 -127 -52 -45 -63 -54 -140 -120 -27 -23 -54 -46 -60 -52 -6 -5
-58 -50 -116 -100 -58 -49 -116 -100 -130 -112 -43 -38 -74 -64 -124 -106 -28
-23 -74 -63 -104 -89 -31 -27 -59 -48 -64 -48 -5 0 -6 -4 -3 -10 3 -5 1 -10
-5 -10 -7 0 -27 -15 -46 -32 -18 -18 -39 -37 -46 -43 -17 -13 -140 -117 -154
-130 -6 -5 -32 -28 -58 -50 -26 -22 -62 -53 -80 -70 -17 -16 -52 -46 -76 -66
-25 -20 -56 -47 -70 -60 -14 -13 -50 -44 -80 -69 -30 -25 -67 -56 -82 -70 -14
-14 -35 -32 -46 -40 -29 -22 -119 -100 -159 -137 -19 -18 -37 -33 -40 -33 -3
0 -15 -10 -27 -22 -12 -13 -44 -41 -71 -63 -28 -22 -57 -47 -65 -56 -8 -10
-37 -33 -63 -53 -27 -20 -46 -36 -42 -36 4 0 -20 -21 -53 -47 -33 -27 -56 -50
-52 -53 6 -4 7798 -5 7833 -1 4 1 7 445 7 989 l0 987 -2763 0 c-1520 0 -2772
-2 -2782 -4z"/>
<path d="M11416 4178 c-10 -46 -25 -99 -33 -118 -37 -88 -57 -128 -84 -168
-16 -24 -29 -45 -29 -48 0 -2 -8 -12 -17 -22 -10 -10 -36 -38 -58 -63 -98
-108 -261 -211 -397 -250 -24 -7 -45 -13 -48 -14 -8 -2 -93 -16 -125 -20 -16
-2 -1771 -4 -3899 -4 l-3869 -1 -66 -69 c-144 -150 -441 -459 -534 -554 -53
-55 -97 -102 -97 -103 0 -9 -50 -51 -54 -46 -3 3 -6 0 -6 -6 0 -6 -42 -54 -93
-106 -50 -52 -171 -177 -267 -277 -96 -100 -217 -225 -268 -277 -50 -53 -92
-96 -92 -97 0 -2 -220 -230 -398 -413 -56 -58 -102 -107 -102 -110 0 -2 -10
-12 -22 -22 -22 -18 118 -19 5280 -19 l5302 0 0 1444 c0 795 -1 1445 -3 1445
-1 0 -10 -37 -21 -82z"/>
</g>
</svg>
